<?xml version="1.0" standalone="no"?>
<!DOCTYPE svg PUBLIC "-//W3C//DTD SVG 20010904//EN"
 "http://www.w3.org/TR/2001/REC-SVG-20010904/DTD/svg10.dtd">
<svg version="1.0" xmlns="http://www.w3.org/2000/svg"
 width="1280.000000pt" height="676.000000pt" viewBox="0 0 1280.000000 676.000000"
 preserveAspectRatio="xMidYMid meet">
<g transform="translate(0.000000,676.000000) scale(0.100000,-0.100000)"
fill="#000000" stroke="none">
<path d="M4756 6732 c-46 -88 -49 -595 -5 -812 6 -30 42 -156 80 -280 124
-402 135 -510 67 -653 -45 -94 -117 -201 -212 -314 -130 -156 -207 -228 -287
-269 -228 -114 -815 -305 -989 -321 -81 -7 -113 8 -220 102 -41 36 -93 74
-116 85 -46 23 -138 27 -151 8 -4 -7 -8 -61 -8 -119 0 -100 -1 -107 -28 -142
-51 -68 -120 -85 -173 -45 -16 12 -88 78 -159 147 -72 70 -171 155 -220 190
-134 95 -763 399 -1508 730 -538 239 -783 338 -810 328 -31 -12 188 -190 488
-398 595 -411 1967 -1510 2069 -1657 71 -103 211 -731 223 -997 6 -143 13
-160 67 -170 38 -7 107 16 153 51 43 32 90 115 102 179 19 96 34 585 21 685
-7 50 -9 94 -6 97 25 25 209 -81 244 -142 12 -19 37 -78 58 -132 64 -173 74
-185 125 -147 46 34 130 57 178 49 57 -9 77 -37 95 -132 21 -112 47 -417 45
-525 -3 -102 11 -128 67 -128 53 0 93 45 168 187 158 298 314 447 497 473 87
13 877 12 1239 -1 162 -6 400 -12 529 -13 l235 -2 8 -29 c18 -65 -17 -213 -94
-395 -22 -52 -117 -250 -210 -440 -360 -730 -586 -1259 -682 -1594 -27 -92
-34 -176 -15 -176 44 0 500 482 869 920 321 379 538 677 675 925 148 269 364
570 570 795 43 47 84 88 90 92 6 4 119 21 251 38 476 61 872 137 1094 210 303
99 1031 525 1999 1167 440 293 508 355 561 512 11 33 20 74 20 90 0 25 8 34
48 57 26 15 112 72 192 125 357 241 692 546 779 709 37 70 38 80 6 129 -49 78
-205 129 -465 152 -176 15 -602 6 -950 -20 -249 -19 -412 -28 -1235 -66 -770
-36 -1266 -81 -1710 -156 -99 -17 -389 -75 -645 -129 -720 -152 -912 -186
-1120 -197 -146 -7 -237 6 -319 44 -62 29 -151 116 -680 661 -409 422 -580
570 -757 653 -98 47 -119 48 -138 11z"/>
</g>
</svg>
